<?xml version="1.0" standalone="no"?>
<!DOCTYPE svg PUBLIC "-//W3C//DTD SVG 20010904//EN"
 "http://www.w3.org/TR/2001/REC-SVG-20010904/DTD/svg10.dtd">
<svg version="1.0" xmlns="http://www.w3.org/2000/svg"
 width="500.000000pt" height="500.000000pt" viewBox="0 0 500.000000 500.000000"
 preserveAspectRatio="xMidYMid meet">
<metadata>
Created by potrace 1.11, written by Peter Selinger 2001-2013
</metadata>
<g transform="translate(0.000000,500.000000) scale(0.100000,-0.100000)"
fill="#000000" stroke="none">
<path d="M1220 2500 l0 -1570 1286 0 1286 0 -44 53 c-24 28 -84 101 -133 162
-50 60 -98 119 -107 130 -9 11 -83 101 -163 200 -81 99 -162 198 -180 220 -18
22 -66 81 -107 130 -40 50 -115 141 -166 203 l-92 112 47 1 c245 4 476 103
654 279 128 126 215 279 260 455 40 154 29 421 -21 540 -5 11 -19 45 -31 75
-46 111 -109 202 -208 300 -83 81 -99 94 -186 145 -92 55 -189 92 -300 115
-84 17 -150 18 -942 19 l-853 1 0 -1570z"/>
</g>
</svg>
